<svg width="1500" height="1500" viewBox="0 0 1500 1500" fill="none" xmlns="http://www.w3.org/2000/svg">
<g clip-path="url(#clip0_14_2)">
<path d="M769.209 1313C990.388 1313 1169.69 1281.31 1169.69 1242.22C1169.69 1203.13 990.388 1171.44 769.209 1171.44C548.029 1171.44 368.727 1203.13 368.727 1242.22C368.727 1281.31 548.029 1313 769.209 1313Z" fill="#3F3D56"/>
<path d="M436 580.702C436 477.589 587.315 394 773.971 394C960.627 394 1111.94 477.589 1111.94 580.702" stroke="#3F3D56" stroke-width="2" stroke-miterlimit="10"/>
<path d="M879.691 460.741H604.733C550.351 369.161 550.351 277.58 604.733 186H879.691C803.651 277.58 803.651 369.161 879.691 460.741Z" fill="#E6E6E6"/>
<path d="M798.949 218.707H644.013V238.331H798.949V218.707Z" fill="#F9EB26"/>
<path d="M798.949 283.031H593.822V289.573H798.949V283.031Z" fill="white"/>
<path d="M798.949 316.829H593.822V323.371H798.949V316.829Z" fill="white"/>
<path d="M798.949 350.627H593.822V357.168H798.949V350.627Z" fill="white"/>
<path d="M989.468 1068.9C989.468 1156.03 1044.17 1226.54 1111.78 1226.54L989.468 1068.9Z" fill="#3F3D56"/>
<path d="M1111.78 1226.54C1111.78 1138.43 1172.83 1067.13 1248.27 1067.13L1111.78 1226.54Z" fill="#F9EB26"/>
<path d="M1033.78 1076.8C1033.78 1159.56 1068.67 1226.54 1111.78 1226.54L1033.78 1076.8Z" fill="#F9EB26"/>
<path d="M1111.78 1226.54C1111.78 1113.95 1182.34 1022.85 1269.54 1022.85L1111.78 1226.54Z" fill="#3F3D56"/>
<path d="M1086.05 1227.65C1086.05 1227.65 1103.39 1227.11 1108.62 1223.4C1113.85 1219.68 1135.3 1215.23 1136.6 1221.2C1137.9 1227.17 1162.67 1250.87 1143.08 1251.03C1123.5 1251.18 1097.58 1247.98 1092.36 1244.8C1087.15 1241.63 1086.05 1227.65 1086.05 1227.65Z" fill="#A8A8A8"/>
<path opacity="0.2" d="M1143.43 1248.95C1123.85 1249.11 1097.93 1245.9 1092.71 1242.73C1088.74 1240.31 1087.16 1231.63 1086.63 1227.63C1086.26 1227.64 1086.05 1227.65 1086.05 1227.65C1086.05 1227.65 1087.15 1241.63 1092.36 1244.8C1097.58 1247.98 1123.5 1251.19 1143.08 1251.03C1148.74 1250.98 1150.69 1248.97 1150.58 1246C1149.8 1247.79 1147.64 1248.92 1143.43 1248.95Z" fill="black"/>
<path d="M710.429 400.622C712.022 401.352 713.937 400.264 714.876 398.787C718.45 393.159 711.869 385.903 713.294 379.392C714.436 374.175 720.368 371.079 721.581 365.879C722.76 360.825 719.128 355.13 721.583 350.558C723.506 346.976 728.309 346.033 732.329 346.66C736.348 347.288 740.163 349.053 744.223 349.301C749.634 349.63 754.792 347.25 760.083 346.071C765.374 344.892 771.827 345.354 774.939 349.788C778.936 355.483 774.882 363.412 776.274 370.226C777.379 375.637 781.912 380.118 782.009 385.64C782.044 387.602 776.881 386.021 777.155 387.965C777.43 389.909 774.989 388.197 776.94 387.966C777.736 387.771 778.45 387.328 778.978 386.701C779.506 386.074 779.82 385.295 779.876 384.477C780.108 382.858 783.152 382.319 783.117 380.684C783.035 376.852 789.968 379.435 791.11 375.776C793.736 367.247 793.197 358.057 789.592 349.892C788.037 346.406 785.92 343.107 785.17 339.365C784.151 334.284 785.754 328.83 784.074 323.928C781.81 317.321 774.319 313.953 767.364 313.269C760.409 312.585 753.341 313.81 746.426 312.801C740.231 311.898 734.234 309.215 727.985 309.604C720.488 310.07 713.964 314.897 708.766 320.317C703.569 325.737 699.161 331.97 693.258 336.613C691.451 337.856 689.784 339.29 688.285 340.891C685.279 344.551 684.974 349.766 685.81 354.427C686.647 359.088 688.466 363.535 689.235 368.207C689.957 372.599 689.734 377.085 690.045 381.525C690.356 385.964 691.278 390.538 693.954 394.095C695.025 395.549 696.415 396.738 698.016 397.574C699.617 398.41 701.388 398.87 703.193 398.918C704.444 398.947 705.501 397.824 706.764 398.117C708.342 398.483 709.028 399.981 710.429 400.622Z" fill="#2F2E41"/>
<path d="M656.918 723.24L661.555 751.703L670.83 739.125L665.529 719.93L656.918 723.24Z" fill="#A0616A"/>
<path d="M662.88 508.107L655.578 527.335C655.578 527.335 648.306 625.272 648.306 632.553C648.306 639.834 653.605 733.168 655.593 737.14C655.593 737.14 664.205 724.563 675.467 726.549C686.729 728.535 682.091 693.452 682.091 693.452L692.691 606.737L690.703 563.049L662.88 508.107Z" fill="#575A89"/>
<path opacity="0.1" d="M662.88 508.107L655.578 527.335C655.578 527.335 648.306 625.272 648.306 632.553C648.306 639.834 653.605 733.168 655.593 737.14C655.593 737.14 664.205 724.563 675.467 726.549C686.729 728.535 682.091 693.452 682.091 693.452L692.691 606.737L690.703 563.049L662.88 508.107Z" fill="black"/>
<path d="M707.927 402.197C707.927 402.197 729.789 457.8 717.202 468.392C704.615 478.983 787.423 450.519 787.423 450.519L785.436 443.238C785.436 443.238 758.275 432.647 771.524 402.197C784.773 371.748 707.927 402.197 707.927 402.197Z" fill="#A0616A"/>
<path opacity="0.1" d="M707.927 402.197C707.927 402.197 729.789 457.8 717.202 468.392C704.615 478.983 787.423 450.519 787.423 450.519L785.436 443.238C785.436 443.238 758.275 432.647 771.524 402.197C784.773 371.748 707.927 402.197 707.927 402.197Z" fill="black"/>
<path d="M673.479 1144.9C673.479 1144.9 664.205 1142.25 658.905 1148.87C653.605 1155.49 633.731 1172.04 633.731 1172.04C633.731 1172.04 595.308 1168.07 590.009 1187.26C584.709 1206.46 650.293 1206.46 666.192 1201.83C682.091 1197.19 685.404 1201.83 685.404 1201.83C685.404 1201.83 734.426 1205.8 734.426 1197.85C734.426 1189.91 729.789 1162.77 729.789 1162.77L673.479 1144.9Z" fill="#575A89"/>
<path d="M829.159 1189.25L820.546 1215.73C820.546 1215.73 794.71 1251.47 809.285 1258.75C823.859 1266.03 875.531 1273.31 875.531 1254.12V1217.71C875.531 1217.71 870.231 1191.9 864.932 1189.25C859.632 1186.6 829.159 1189.25 829.159 1189.25Z" fill="#575A89"/>
<path d="M682.861 713.554C682.861 713.554 654.93 737.802 655.593 741.112C656.255 744.421 669.504 956.906 669.504 956.906L676.792 1094.59C676.792 1094.59 667.517 1127.03 672.154 1134.31C676.792 1141.59 665.53 1143.57 665.53 1143.57C665.53 1143.57 713.227 1186.6 733.101 1168.07L751.65 927.78L802.66 1102.53C802.66 1102.53 811.272 1195.21 821.209 1195.21C831.146 1195.21 871.556 1197.19 870.894 1191.9C870.231 1186.6 872.881 1146.22 868.244 1122.39C863.607 1098.56 832.471 909.908 832.471 909.908C832.471 909.908 829.794 748.178 836.763 733.061C843.733 717.944 833.133 702.057 833.133 702.057L786.761 684.185L731.114 690.804L682.861 713.554Z" fill="#2F2E41"/>
<path d="M738.373 426.672C763.983 426.672 784.745 405.927 784.745 380.336C784.745 354.745 763.983 334 738.373 334C712.762 334 692 354.745 692 380.336C692 405.927 712.762 426.672 738.373 426.672Z" fill="#FFB7B7"/>
<circle opacity="0.9" r="4.5" transform="matrix(-1 0 0 1 1201.5 652.5)" fill="black"/>
<circle opacity="0.9" r="4.5" transform="matrix(-1 0 0 1 1201.5 652.5)" fill="black"/>
<path d="M855 469.95C852.629 463.273 848.633 457.284 843.369 452.52C838.105 447.756 831.737 444.365 824.834 442.65C811.005 439.187 797.478 434.622 784.384 429C784.384 429 735.708 452.205 726.11 452.205C716.511 452.205 716.511 446.063 716.511 446.063C716.511 446.063 691.83 471.998 678.804 474.728C665.778 477.458 646.581 509.536 653.437 527.281C658.094 538.657 664.836 549.072 673.319 557.993C673.319 557.993 670.577 653.544 679.49 671.289C679.49 671.289 657.551 712.922 678.118 715.652C698.686 718.382 777.529 708.827 791.24 718.382C804.952 727.937 830.319 716.335 833.747 729.302C837.175 742.27 844.716 745 844.716 745C844.716 745 856.371 726.572 849.515 715.652C842.66 704.732 855 469.95 855 469.95Z" fill="#575A89"/>
<path d="M802.66 727.211L792.061 733.83C792.061 733.83 803.322 772.885 807.96 774.209C812.597 775.533 823.512 740.815 823.512 740.815L802.66 727.211Z" fill="#A0616A"/>
<path d="M702.48 395.989C704.072 396.718 705.987 395.631 706.926 394.153C710.501 388.525 703.92 381.269 705.345 374.758C706.486 369.541 712.419 366.445 713.632 361.245C714.81 356.192 711.179 350.496 713.633 345.924C715.556 342.342 720.36 341.399 724.379 342.027C728.398 342.654 732.213 344.42 736.274 344.667C741.685 344.997 746.842 342.617 752.133 341.437C757.424 340.258 763.877 340.72 766.99 345.155C770.986 350.849 766.932 358.778 768.324 365.592C769.429 371.004 782.019 374.802 783.16 371.143C785.786 362.613 785.248 353.423 781.643 345.258C780.088 341.772 777.971 338.473 777.22 334.731C776.202 329.65 777.804 324.196 776.124 319.294C773.86 312.687 766.369 309.32 759.414 308.636C752.459 307.952 745.392 309.176 738.477 308.167C732.282 307.264 726.284 304.581 720.036 304.97C712.538 305.436 706.014 310.263 700.817 315.683C695.62 321.103 691.211 327.336 685.308 331.979C683.501 333.222 681.834 334.656 680.336 336.257C677.329 339.918 677.025 345.132 677.861 349.794C678.697 354.455 680.517 358.901 681.285 363.574C682.007 367.965 681.785 372.451 682.096 376.891C682.407 381.33 683.329 385.904 686.005 389.462C687.076 390.915 688.465 392.105 690.066 392.94C691.667 393.776 693.438 394.236 695.244 394.285C696.495 394.313 697.551 393.19 698.814 393.483C700.392 393.849 701.079 395.347 702.48 395.989Z" fill="#2F2E41"/>
<path opacity="0.1" d="M825.515 489.904L847.045 478.32C847.045 478.32 899.38 602.766 886.793 637.187C874.206 671.608 825.846 742.436 825.846 742.436C825.846 742.436 787.423 734.493 791.398 726.549C795.373 718.606 821.209 667.636 823.196 661.017C825.184 654.397 838.433 611.371 832.471 606.737C826.509 602.104 814.916 494.538 814.916 494.538L825.515 489.904Z" fill="black"/>
<path d="M825.184 471.039L851.682 478.32C851.682 478.32 904.017 602.766 891.43 637.187C878.843 671.608 830.483 742.436 830.483 742.436C830.483 742.436 792.06 734.493 796.035 726.549C800.01 718.606 825.846 667.637 827.834 661.017C829.821 654.398 843.07 611.371 837.108 606.738C831.146 602.104 802.66 487.588 802.66 487.588L825.184 471.039Z" fill="#575A89"/>
<path d="M1111.39 575.557C1111.39 683.663 960.078 771.3 773.422 771.3C586.766 771.3 435.451 683.663 435.451 575.557" stroke="#3F3D56" stroke-width="2" stroke-miterlimit="10"/>
<path d="M1049.92 774.079C974.372 814.791 875.799 839.427 767.971 839.427C664.586 839.427 569.709 816.78 495.48 779.03" stroke="#3F3D56" stroke-width="2" stroke-miterlimit="10"/>
<path d="M942.202 338.316C1085.97 376.075 1188.36 459.131 1197.89 556.952" stroke="#3F3D56" stroke-width="2" stroke-miterlimit="10"/>
<path d="M358.078 493.37C382.303 448.882 426.557 409.73 484.539 379.651" stroke="#3F3D56" stroke-width="2" stroke-miterlimit="10"/>
<path d="M655.299 969.601H930.256C984.639 878.02 984.639 786.44 930.256 694.859H655.299C731.339 786.44 731.339 878.02 655.299 969.601Z" fill="#F2F2F2"/>
<path d="M901.213 747.191H746.277V766.816H901.213V747.191Z" fill="#F9EB26"/>
<path d="M939.402 806.064H734.275V812.606H939.402V806.064Z" fill="white"/>
<path d="M939.402 839.862H734.275V846.404H939.402V839.862Z" fill="white"/>
<path d="M538.744 783.119H263.787C209.404 691.539 209.404 599.958 263.787 508.378H538.744C462.705 599.958 462.705 691.539 538.744 783.119Z" fill="#F2F2F2"/>
<path d="M449.274 541.085H294.338V560.709H449.274V541.085Z" fill="#F9EB26"/>
<path d="M465.641 595.597H260.514V602.138H465.641V595.597Z" fill="white"/>
<path d="M465.641 629.395H260.514V635.936H465.641V629.395Z" fill="white"/>
<path d="M465.641 663.192H260.514V669.734H465.641V663.192Z" fill="white"/>
<path d="M465.641 696.989H260.514V703.531H465.641V696.989Z" fill="white"/>
<path d="M988.256 656.564H1125.73H1263.21C1317.6 564.983 1317.6 473.403 1263.21 381.822H988.256C1064.3 473.403 1064.3 564.983 988.256 656.564Z" fill="#F2F2F2"/>
<path d="M1224.94 429H1070V448.624H1224.94V429Z" fill="#F9EB26"/>
<circle opacity="0.9" r="4.5" transform="matrix(-1 0 0 1 726.5 379.5)" fill="black"/>
<path d="M1264.72 463.591H1059.59V470.132H1264.72V463.591Z" fill="white"/>
<circle cx="758.5" cy="377.5" r="4.5" fill="black"/>
<path d="M364 895.623C363.802 895.623 363.609 895.564 363.444 895.455C363.28 895.345 363.152 895.189 363.076 895.006C363 894.823 362.981 894.622 363.019 894.428C363.058 894.234 363.153 894.056 363.293 893.916L443.903 813.306C443.994 813.212 444.103 813.136 444.223 813.083C444.344 813.031 444.474 813.003 444.605 813C444.736 812.998 444.867 813.021 444.989 813.069C445.112 813.118 445.223 813.189 445.318 813.281C445.412 813.372 445.488 813.481 445.54 813.602C445.593 813.722 445.621 813.852 445.623 813.983C445.625 814.115 445.601 814.245 445.553 814.368C445.505 814.49 445.433 814.601 445.341 814.696L445.317 814.72L364.707 895.332C364.519 895.52 364.265 895.625 364 895.625V895.623Z" fill="#CCCCCC"/>
<path d="M380.399 1156.93C404.966 1180.84 407.967 1217.61 407.967 1217.61C407.967 1217.61 371.136 1215.59 346.568 1191.68C322.001 1167.76 319 1131 319 1131C319 1131 355.831 1133.01 380.399 1156.93Z" fill="#3F3D56"/>
<path d="M423.466 1160.85C398.899 1184.77 395.898 1221.53 395.898 1221.53C395.898 1221.53 432.729 1219.52 457.296 1195.61C481.864 1171.69 484.865 1134.93 484.865 1134.93C484.865 1134.93 448.034 1136.94 423.466 1160.85Z" fill="#3F3D56"/>
<path d="M443.521 1135.26C434.568 1168.35 403.901 1188.85 403.901 1188.85C403.901 1188.85 387.751 1155.69 396.704 1122.59C405.657 1089.5 436.323 1069 436.323 1069C436.323 1069 452.474 1102.16 443.521 1135.26Z" fill="#8985A8"/>
<path d="M360.262 1150.34C371.062 1183.48 408.056 1204 408.056 1204C408.056 1204 427.539 1170.8 416.738 1137.66C405.938 1104.52 368.944 1084 368.944 1084C368.944 1084 349.461 1117.2 360.262 1150.34Z" fill="#8985A8"/>
</g>
<defs>
<clipPath id="clip0_14_2">
<rect width="1081" height="1127" fill="white" transform="translate(223 186)"/>
</clipPath>
</defs>
</svg>
